<svg xmlns="http://www.w3.org/2000/svg" version="1.1" xmlns:xlink="http://www.w3.org/1999/xlink"
     xmlns:svgjs="http://svgjs.dev/svgjs" viewBox="0 0 2400 800" id="sssurf" style="background-color:white">
    <defs>
        <linearGradient x1="50%" y1="0%" x2="50%" y2="100%" id="sssurf-grad">
            <stop stop-color="hsl(1.4, 100%, 67%)" stop-opacity="1" offset="0%"></stop>
            <stop stop-color="hsl(167, 52%, 78%)" stop-opacity="1" offset="100%"></stop>
        </linearGradient>
    </defs>
    <g fill="url(#sssurf-grad)" transform="matrix(1,0,0,1,10.8282470703125,224.54771041870117)">
        <path d="M-10,10C33.75,12.916666666666668,114.58333333333334,32.125,200,24C285.41666666666663,15.875,316.66666666666663,-31.5,400,-29C483.33333333333337,-26.5,516.6666666666666,35.791666666666664,600,36C683.3333333333334,36.208333333333336,716.6666666666666,-30.291666666666668,800,-28C883.3333333333334,-25.708333333333332,916.6666666666666,43.041666666666664,1000,47C1083.3333333333333,50.958333333333336,1116.6666666666667,-7.958333333333333,1200,-9C1283.3333333333333,-10.041666666666666,1316.6666666666667,40.541666666666664,1400,42C1483.3333333333333,43.458333333333336,1516.6666666666667,-0.75,1600,-2C1683.3333333333333,-3.25,1716.6666666666667,34.541666666666664,1800,36C1883.3333333333333,37.458333333333336,1916.6666666666667,0.41666666666666696,2000,5C2083.3333333333335,9.583333333333332,2118.75,56.958333333333336,2200,58C2281.25,59.041666666666664,2296.25,-61.25,2390,10C2483.75,81.25,3252.0833333333335,214.58333333333331,2650,400C2047.9166666666665,585.4166666666667,156.25,795.8333333333334,-500,900"
              transform="matrix(1,0,0,1,0,35)" opacity="0.05"></path>
        <path d="M-10,10C33.75,12.916666666666668,114.58333333333334,32.125,200,24C285.41666666666663,15.875,316.66666666666663,-31.5,400,-29C483.33333333333337,-26.5,516.6666666666666,35.791666666666664,600,36C683.3333333333334,36.208333333333336,716.6666666666666,-30.291666666666668,800,-28C883.3333333333334,-25.708333333333332,916.6666666666666,43.041666666666664,1000,47C1083.3333333333333,50.958333333333336,1116.6666666666667,-7.958333333333333,1200,-9C1283.3333333333333,-10.041666666666666,1316.6666666666667,40.541666666666664,1400,42C1483.3333333333333,43.458333333333336,1516.6666666666667,-0.75,1600,-2C1683.3333333333333,-3.25,1716.6666666666667,34.541666666666664,1800,36C1883.3333333333333,37.458333333333336,1916.6666666666667,0.41666666666666696,2000,5C2083.3333333333335,9.583333333333332,2118.75,56.958333333333336,2200,58C2281.25,59.041666666666664,2296.25,-61.25,2390,10C2483.75,81.25,3252.0833333333335,214.58333333333331,2650,400C2047.9166666666665,585.4166666666667,156.25,795.8333333333334,-500,900"
              transform="matrix(1,0,0,1,0,70)" opacity="0.21"></path>
        <path d="M-10,10C33.75,12.916666666666668,114.58333333333334,32.125,200,24C285.41666666666663,15.875,316.66666666666663,-31.5,400,-29C483.33333333333337,-26.5,516.6666666666666,35.791666666666664,600,36C683.3333333333334,36.208333333333336,716.6666666666666,-30.291666666666668,800,-28C883.3333333333334,-25.708333333333332,916.6666666666666,43.041666666666664,1000,47C1083.3333333333333,50.958333333333336,1116.6666666666667,-7.958333333333333,1200,-9C1283.3333333333333,-10.041666666666666,1316.6666666666667,40.541666666666664,1400,42C1483.3333333333333,43.458333333333336,1516.6666666666667,-0.75,1600,-2C1683.3333333333333,-3.25,1716.6666666666667,34.541666666666664,1800,36C1883.3333333333333,37.458333333333336,1916.6666666666667,0.41666666666666696,2000,5C2083.3333333333335,9.583333333333332,2118.75,56.958333333333336,2200,58C2281.25,59.041666666666664,2296.25,-61.25,2390,10C2483.75,81.25,3252.0833333333335,214.58333333333331,2650,400C2047.9166666666665,585.4166666666667,156.25,795.8333333333334,-500,900"
              transform="matrix(1,0,0,1,0,105)" opacity="0.37"></path>
        <path d="M-10,10C33.75,12.916666666666668,114.58333333333334,32.125,200,24C285.41666666666663,15.875,316.66666666666663,-31.5,400,-29C483.33333333333337,-26.5,516.6666666666666,35.791666666666664,600,36C683.3333333333334,36.208333333333336,716.6666666666666,-30.291666666666668,800,-28C883.3333333333334,-25.708333333333332,916.6666666666666,43.041666666666664,1000,47C1083.3333333333333,50.958333333333336,1116.6666666666667,-7.958333333333333,1200,-9C1283.3333333333333,-10.041666666666666,1316.6666666666667,40.541666666666664,1400,42C1483.3333333333333,43.458333333333336,1516.6666666666667,-0.75,1600,-2C1683.3333333333333,-3.25,1716.6666666666667,34.541666666666664,1800,36C1883.3333333333333,37.458333333333336,1916.6666666666667,0.41666666666666696,2000,5C2083.3333333333335,9.583333333333332,2118.75,56.958333333333336,2200,58C2281.25,59.041666666666664,2296.25,-61.25,2390,10C2483.75,81.25,3252.0833333333335,214.58333333333331,2650,400C2047.9166666666665,585.4166666666667,156.25,795.8333333333334,-500,900"
              transform="matrix(1,0,0,1,0,140)" opacity="0.53"></path>
        <path d="M-10,10C33.75,12.916666666666668,114.58333333333334,32.125,200,24C285.41666666666663,15.875,316.66666666666663,-31.5,400,-29C483.33333333333337,-26.5,516.6666666666666,35.791666666666664,600,36C683.3333333333334,36.208333333333336,716.6666666666666,-30.291666666666668,800,-28C883.3333333333334,-25.708333333333332,916.6666666666666,43.041666666666664,1000,47C1083.3333333333333,50.958333333333336,1116.6666666666667,-7.958333333333333,1200,-9C1283.3333333333333,-10.041666666666666,1316.6666666666667,40.541666666666664,1400,42C1483.3333333333333,43.458333333333336,1516.6666666666667,-0.75,1600,-2C1683.3333333333333,-3.25,1716.6666666666667,34.541666666666664,1800,36C1883.3333333333333,37.458333333333336,1916.6666666666667,0.41666666666666696,2000,5C2083.3333333333335,9.583333333333332,2118.75,56.958333333333336,2200,58C2281.25,59.041666666666664,2296.25,-61.25,2390,10C2483.75,81.25,3252.0833333333335,214.58333333333331,2650,400C2047.9166666666665,585.4166666666667,156.25,795.8333333333334,-500,900"
              transform="matrix(1,0,0,1,0,175)" opacity="0.68"></path>
        <path d="M-10,10C33.75,12.916666666666668,114.58333333333334,32.125,200,24C285.41666666666663,15.875,316.66666666666663,-31.5,400,-29C483.33333333333337,-26.5,516.6666666666666,35.791666666666664,600,36C683.3333333333334,36.208333333333336,716.6666666666666,-30.291666666666668,800,-28C883.3333333333334,-25.708333333333332,916.6666666666666,43.041666666666664,1000,47C1083.3333333333333,50.958333333333336,1116.6666666666667,-7.958333333333333,1200,-9C1283.3333333333333,-10.041666666666666,1316.6666666666667,40.541666666666664,1400,42C1483.3333333333333,43.458333333333336,1516.6666666666667,-0.75,1600,-2C1683.3333333333333,-3.25,1716.6666666666667,34.541666666666664,1800,36C1883.3333333333333,37.458333333333336,1916.6666666666667,0.41666666666666696,2000,5C2083.3333333333335,9.583333333333332,2118.75,56.958333333333336,2200,58C2281.25,59.041666666666664,2296.25,-61.25,2390,10C2483.75,81.25,3252.0833333333335,214.58333333333331,2650,400C2047.9166666666665,585.4166666666667,156.25,795.8333333333334,-500,900"
              transform="matrix(1,0,0,1,0,210)" opacity="0.84"></path>
        <path d="M-10,10C33.75,12.916666666666668,114.58333333333334,32.125,200,24C285.41666666666663,15.875,316.66666666666663,-31.5,400,-29C483.33333333333337,-26.5,516.6666666666666,35.791666666666664,600,36C683.3333333333334,36.208333333333336,716.6666666666666,-30.291666666666668,800,-28C883.3333333333334,-25.708333333333332,916.6666666666666,43.041666666666664,1000,47C1083.3333333333333,50.958333333333336,1116.6666666666667,-7.958333333333333,1200,-9C1283.3333333333333,-10.041666666666666,1316.6666666666667,40.541666666666664,1400,42C1483.3333333333333,43.458333333333336,1516.6666666666667,-0.75,1600,-2C1683.3333333333333,-3.25,1716.6666666666667,34.541666666666664,1800,36C1883.3333333333333,37.458333333333336,1916.6666666666667,0.41666666666666696,2000,5C2083.3333333333335,9.583333333333332,2118.75,56.958333333333336,2200,58C2281.25,59.041666666666664,2296.25,-61.25,2390,10C2483.75,81.25,3252.0833333333335,214.58333333333331,2650,400C2047.9166666666665,585.4166666666667,156.25,795.8333333333334,-500,900"
              transform="matrix(1,0,0,1,0,245)" opacity="1"></path>
    </g>
</svg>