<svg id="Calque_1" data-name="Calque 1" xmlns="http://www.w3.org/2000/svg" viewBox="0 0 257.04 86.18"><defs><style>.cls-1{opacity:1;}.cls-2{fill:#36404A;}</style></defs><title>logo skazy</title><g class="cls-1"><path class="cls-2" d="M184.29,22.11h-26.4a7,7,0,0,0-7.19,7.08V36l20.81-4.92a1.76,1.76,0,0,1,1.37.13,1.66,1.66,0,0,1,.68,1.08,1.57,1.57,0,0,1-.13,1.24,1.81,1.81,0,0,1-1.23.73l-16.64,4.22c-3.08.75-4.86,3.14-4.86,7.31v7.64a7.07,7.07,0,0,0,7.29,7.3h31.45a2.12,2.12,0,0,0,2.14-1.79v-12l-21.52,4.84a2.18,2.18,0,0,1-.55.07,1.42,1.42,0,0,1-.78-.21,1.73,1.73,0,0,1-.72-1.14,1.59,1.59,0,0,1,1.36-2l16.72-3.79A6.89,6.89,0,0,0,191.58,38V29.4A7.06,7.06,0,0,0,184.29,22.11Z"/><path class="cls-2" d="M47.21,22.11H20.82a7.06,7.06,0,0,0-7.29,7.29V38A6.89,6.89,0,0,0,19,44.71L35.74,48.5a1.58,1.58,0,0,1,1.36,2,1.73,1.73,0,0,1-.72,1.15,1.42,1.42,0,0,1-.78.21,2.18,2.18,0,0,1-.55-.07L13.53,46.91v6.64a7,7,0,0,0,7.13,7.16H47.12a7.07,7.07,0,0,0,7.29-7.3V45.77c0-4.17-1.78-6.56-4.86-7.31L32.9,34.24a1.81,1.81,0,0,1-1.22-.73,1.59,1.59,0,0,1-.12-1.25,1.62,1.62,0,0,1,.67-1.07,1.76,1.76,0,0,1,1.37-.13L54.41,36v-6.7A7,7,0,0,0,47.21,22.11Z"/><path class="cls-2" d="M242.19,22.11H215.62l8.15,17.7a2,2,0,0,1,.15,1.62,1.24,1.24,0,0,1-.83.62,1.62,1.62,0,0,1-.7.16,1.39,1.39,0,0,1-.53-.1,1.73,1.73,0,0,1-.88-.92l-8.39-18.1a1.38,1.38,0,0,0-1.47-1H195.73a2.07,2.07,0,0,0-1.93,3.14l14.58,32.17-7,15.51a2.07,2.07,0,0,0,1.94,3h16.86a1.48,1.48,0,0,0,1.5-.93l22.45-49.75A2.06,2.06,0,0,0,242.19,22.11Z"/><path class="cls-2" d="M94.24,41.48l9.36-16a2.14,2.14,0,0,0-1.93-3.36H78.52V8.67a1.44,1.44,0,0,0-1.43-1.43H59.93A1.77,1.77,0,0,0,58.15,9V58.92A1.74,1.74,0,0,0,60,60.71H75.37a.78.78,0,0,0,.22,0,1.08,1.08,0,0,0,.86-1.06v-4L68,41.46l0,0,.09-.17,6.85-12.69a2.41,2.41,0,0,1,1.4-1.26,1.44,1.44,0,0,1,1.13.23,1.84,1.84,0,0,1,.53,2.64L72,41.47l9.29,15.3a9.17,9.17,0,0,0,2.41,2.92,7.47,7.47,0,0,0,3.92,1H102a2.14,2.14,0,0,0,1.93-3.44Z"/><path class="cls-2" d="M146.13,30.4c-2.14-4.31-5.82-6.63-10.28-7.88a37.44,37.44,0,0,0-13.46-1,71.52,71.52,0,0,0-14.29,2.63c-1,.31-1.38.76-1.26,1.75.33,2.76.68,5.52,1.08,8.28v0a1.27,1.27,0,0,0,.06.28s0,0,0,.06a1.15,1.15,0,0,0,.44.67,1.6,1.6,0,0,0,1.29.09l2-.5a40.63,40.63,0,0,1,5.06-1.09c2.43-.3,4.92-.39,7.37-.46h.3a3.26,3.26,0,0,1,2.47.72,3.48,3.48,0,0,1,.81,2.6V50.13l-.25,0a7.83,7.83,0,0,1-.91.06,2.21,2.21,0,0,1-1.54-.45,2.77,2.77,0,0,1-.69-2.19.61.61,0,0,1,0-.19V38.71a2.36,2.36,0,0,0-.49-1.73,2.21,2.21,0,0,0-1.59-.5c-4,0-7.94.16-11.6,1.76a9.5,9.5,0,0,0-5.23,5.15,16.74,16.74,0,0,0-1.11,8.19,10.1,10.1,0,0,0,2.27,5.8c1.86,2.15,4.06,3.59,7.13,3.47,3.72-.15,7.44-.08,11.16,0h.3a2.51,2.51,0,0,0,2-1.15c1.09-1.53,2.52-3.29,3.7-4.7l.46-.55a2,2,0,0,1,1.33-.81,1.32,1.32,0,0,1,1,.33,1.72,1.72,0,0,1,.1,2.46c-.11.15-.23.3-.35.44l-.18.22-3,3.73h15c1.87,0,2.37-.49,2.36-2.35q-.06-11-.13-22A13.75,13.75,0,0,0,146.13,30.4Z"/></g></svg>